<?xml version="1.0" standalone="no"?>
<!DOCTYPE svg PUBLIC "-//W3C//DTD SVG 20010904//EN"
 "http://www.w3.org/TR/2001/REC-SVG-20010904/DTD/svg10.dtd">
<svg version="1.0" xmlns="http://www.w3.org/2000/svg"
 width="512.000000pt" height="512.000000pt" viewBox="0 0 512.000000 512.000000"
 preserveAspectRatio="xMidYMid meet">

<g transform="translate(0.000000,512.000000) scale(0.100000,-0.100000)"
fill="#000000" stroke="none">
<path d="M450 4664 c-124 -33 -246 -113 -318 -207 -55 -71 -108 -188 -122
-267 -8 -45 -10 -341 -8 -975 l3 -910 27 -75 c53 -145 157 -266 288 -334 98
-52 166 -66 337 -73 l153 -6 2 -263 3 -263 455 262 455 262 795 6 c883 6 842
3 980 75 134 70 243 200 291 345 l24 74 0 940 c0 1043 5 965 -66 1106 -63 126
-190 238 -330 290 l-64 24 -1425 2 c-1233 2 -1432 0 -1480 -13z m1208 -846 l3
-148 -241 0 -240 0 0 -135 0 -135 220 0 220 0 0 -150 0 -150 -220 0 -220 0 0
-130 0 -130 238 -2 237 -3 3 -147 3 -148 -391 0 -390 0 0 715 0 715 388 -2
387 -3 3 -147z m988 115 c44 -17 109 -48 143 -70 l62 -40 -97 -116 -98 -116
-25 17 c-79 53 -209 77 -283 53 -72 -24 -105 -99 -62 -141 10 -10 96 -48 189
-85 94 -37 198 -82 233 -101 83 -47 153 -119 194 -201 30 -62 33 -75 33 -163
0 -86 -3 -101 -32 -163 -38 -80 -122 -168 -199 -209 -209 -112 -525 -65 -711
106 l-55 50 25 21 c13 11 63 55 110 98 l86 79 38 -31 c100 -79 273 -109 362
-62 35 19 81 81 81 110 0 64 -61 106 -255 176 -178 63 -251 101 -308 158 -180
178 -130 485 100 609 84 46 145 58 273 54 98 -3 127 -7 196 -33z"/>
<path d="M4118 3053 c-3 -765 -4 -779 -25 -853 -94 -325 -331 -561 -652 -648
l-96 -26 -764 -4 -765 -3 -69 -41 c-79 -46 -79 -44 -23 -163 60 -128 148 -217
281 -283 117 -59 154 -62 792 -62 l578 0 464 -265 c255 -146 465 -265 467
-265 2 0 4 119 4 265 l0 265 133 0 c158 0 241 16 345 66 104 50 214 160 265
264 68 137 67 116 67 1106 0 855 -1 894 -20 968 -28 112 -73 190 -160 277 -75
76 -131 112 -240 152 -49 18 -84 21 -317 25 l-262 4 -3 -779z"/>
</g>
</svg>
