<?xml version="1.0" encoding="UTF-8"?>
<svg version="1.1" xmlns="http://www.w3.org/2000/svg" width="512" height="512">
<path d="M0 0 C7.88341269 7.27989784 15.45671939 19.34884447 16.42700195 30.23608398 C16.89425067 47.4684402 14.62469009 61.52024155 2.4375 74.625 C-3.61101592 80.39030781 -10.57902485 84.93913427 -17.44873047 89.65429688 C-21.25749105 92.29529615 -25.00146301 95.02453089 -28.75 97.75 C-35.24973876 102.46155824 -41.7886561 107.11298824 -48.35546875 111.73046875 C-53.5156672 115.36454566 -58.6392894 119.04671401 -63.75 122.75 C-70.25058483 127.46040657 -76.7886388 132.11297608 -83.35546875 136.73046875 C-88.5156687 140.36454672 -93.63921666 144.04681272 -98.75 147.75 C-106.66913144 153.48619007 -114.64256844 159.14135406 -122.64111328 164.76611328 C-125.3818594 166.69459845 -128.1196792 168.62721148 -130.85717773 170.56030273 C-132.26547926 171.55477828 -133.68006218 172.54063356 -135.10849953 173.50596333 C-138.66160281 175.94116318 -141.95170828 178.33919343 -144.97154236 181.41973877 C-158.40398702 194.2189094 -176.53816227 191.80081345 -193.79199719 191.46672726 C-198.37079264 191.39099857 -202.94971239 191.3846074 -207.52903748 191.37042236 C-216.17439607 191.33333015 -224.81790344 191.2351452 -233.46245188 191.11422849 C-243.31487441 190.97944929 -253.16739192 190.91395937 -263.02050889 190.85388327 C-283.26470035 190.72891961 -303.50723292 190.51826038 -323.75 190.25 C-323.16089844 191.28640625 -322.57179688 192.3228125 -321.96484375 193.390625 C-321.20508806 194.76006118 -320.44600857 196.12987267 -319.6875 197.5 C-319.29755859 198.18191406 -318.90761719 198.86382812 -318.50585938 199.56640625 C-318.14169922 200.23027344 -317.77753906 200.89414062 -317.40234375 201.578125 C-317.06195068 202.1855957 -316.72155762 202.79306641 -316.37084961 203.41894531 C-315.58245476 205.74413658 -315.89313768 206.9778523 -316.75 209.25 C-318.22299194 210.42300415 -318.22299194 210.42300415 -320.14208984 211.38134766 C-320.8614975 211.74918365 -321.58090515 212.11701965 -322.32211304 212.4960022 C-323.50458115 213.07419205 -323.50458115 213.07419205 -324.7109375 213.6640625 C-325.53010651 214.07860687 -326.34927551 214.49315125 -327.19326782 214.92025757 C-329.83081904 216.25162087 -332.47740522 217.56374131 -335.125 218.875 C-336.83919907 219.73436699 -338.55274827 220.5950316 -340.265625 221.45703125 C-342.84180939 222.75343728 -345.4183532 224.04902994 -347.99737549 225.33978271 C-355.4956749 229.09799323 -362.91773573 232.99210808 -370.33056641 236.91552734 C-374.34404384 239.03963223 -378.37088147 241.13658224 -382.40625 243.21875 C-384.12134766 244.10433594 -384.12134766 244.10433594 -385.87109375 245.0078125 C-387.59107995 245.89464932 -389.31108998 246.78144067 -391.03173828 247.66699219 C-392.76154441 248.55768853 -394.49016715 249.45068194 -396.21875 250.34375 C-397.71051758 251.11235352 -397.71051758 251.11235352 -399.23242188 251.89648438 C-401.88289898 253.27030048 -401.88289898 253.27030048 -404.75 255.25 C-406.07 255.25 -407.39 255.25 -408.75 255.25 C-409.33378418 254.10748779 -409.91756836 252.96497559 -410.51904297 251.7878418 C-412.73582861 247.45017614 -414.95413754 243.11329089 -417.17285156 238.77661133 C-418.12344692 236.91809193 -419.07365729 235.05937555 -420.0234375 233.20043945 C-425.7718814 221.95017452 -431.57769209 210.733642 -437.47705078 199.56176758 C-440.60193656 193.6420253 -443.67675243 187.69669773 -446.75 181.75 C-450.72518738 174.07007535 -454.71124926 166.3967014 -458.75 158.75 C-462.78875353 151.10329331 -466.77416791 143.42959441 -470.75 135.75 C-474.85499638 127.82272962 -478.96815245 119.90022099 -483.125 112 C-483.51921143 111.24775146 -483.91342285 110.49550293 -484.31958008 109.72045898 C-486.22936338 106.08685025 -488.17111767 102.47676737 -490.17578125 98.89453125 C-490.55750488 98.20456055 -490.93922852 97.51458984 -491.33251953 96.80371094 C-492.04569092 95.51855277 -492.76866538 94.23876319 -493.50341797 92.96582031 C-494.7411271 90.72554762 -495.7510471 88.89429014 -495.74682617 86.29711914 C-494.16765058 83.05406567 -491.21360041 82.00687783 -488.1015625 80.4921875 C-487.42218628 80.14772079 -486.74281006 79.80325409 -486.04284668 79.448349 C-483.8263798 78.32784909 -481.60088961 77.22664436 -479.375 76.125 C-477.8428372 75.35394629 -476.31142544 74.5813984 -474.78076172 73.80737305 C-471.77447684 72.28823909 -468.76542546 70.77484221 -465.75390625 69.26611328 C-461.09447355 66.92675541 -456.47709381 64.51252038 -451.875 62.0625 C-444.7998902 58.31842882 -437.7042346 54.61446631 -430.5993042 50.92733765 C-428.87790376 50.03394405 -427.15696035 49.13967003 -425.43603516 48.24536133 C-418.23969627 44.51418458 -411.01059608 40.85451642 -403.75 37.25 C-402.41161267 39.70570175 -401.07913768 42.16429916 -399.75 44.625 C-399.3684375 45.32367188 -398.986875 46.02234375 -398.59375 46.7421875 C-395.75 52.0234375 -395.75 52.0234375 -395.75 54.25 C-392.84420008 51.36106159 -389.96712111 48.44813236 -387.11328125 45.5078125 C-369.3116744 27.26779642 -350.33896495 16.56644157 -324.75 13.25 C-323.93917969 13.13785156 -323.12835938 13.02570313 -322.29296875 12.91015625 C-295.41936162 9.82074945 -266.55335074 12.77729698 -243.75 28.25 C-243.30247375 28.74503525 -242.85494751 29.2400705 -242.39385986 29.75010681 C-238.72992143 33.69792524 -235.81822011 34.68754131 -230.4543457 34.95947266 C-227.94481705 34.97337039 -225.43499109 34.95640862 -222.92578125 34.9140625 C-221.57447187 34.9151587 -220.22316168 34.9194799 -218.87187195 34.92684937 C-215.32352423 34.94021039 -211.77619444 34.92151905 -208.22796631 34.89239502 C-202.56891477 34.84693631 -196.9104329 34.83165908 -191.25124168 34.85194016 C-189.29504222 34.85157315 -187.33890128 34.82529697 -185.38288879 34.79824829 C-172.72726342 34.80191136 -162.45097352 37.95945171 -152.75 46.25 C-150.56487052 48.49631311 -148.67497925 50.76778991 -146.75 53.25 C-141.77532484 50.69510511 -137.15104938 47.89897823 -132.6640625 44.5546875 C-126.87580315 40.30319862 -120.93459211 36.32402128 -114.9375 32.375 C-108.47060724 28.09260236 -102.02780349 23.80584755 -95.75 19.25 C-89.43615948 14.67790859 -82.98232699 10.3294087 -76.5 6 C-75.49324219 5.32582031 -74.48648437 4.65164062 -73.44921875 3.95703125 C-49.7602034 -11.80443483 -24.84817198 -19.49201046 0 0 Z M-61.52441406 33.69238281 C-65.34843949 36.36869723 -69.20703642 38.99427826 -73.0625 41.625 C-74.67328596 42.72640328 -76.28396233 43.82796687 -77.89453125 44.9296875 C-78.69713379 45.47850586 -79.49973633 46.02732422 -80.32666016 46.59277344 C-84.30162332 49.31109401 -88.27577548 52.03059969 -92.25 54.75 C-93.83332934 55.83333917 -95.41666268 56.9166725 -97 58 C-97.78375 58.53625 -98.5675 59.0725 -99.375 59.625 C-106.5 64.5 -106.5 64.5 -108.87792969 66.12426758 C-110.4549129 67.20507565 -112.02851544 68.29083355 -113.59863281 69.3815918 C-117.64002119 72.17963724 -121.71042767 74.85834269 -125.921875 77.39453125 C-136.01753982 83.60894819 -141.37543059 88.26817725 -145.31640625 99.5078125 C-148.79799344 109.31753652 -156.84969016 114.41119699 -165.734375 118.875 C-177.67428985 123.48828836 -191.35809697 122.58986823 -203.92578125 122.6640625 C-205.94745138 122.68280786 -207.96911396 122.70238368 -209.99076843 122.7227478 C-215.26939409 122.77371961 -220.54804503 122.81353069 -225.82678223 122.85089111 C-231.23028636 122.89115188 -236.63368857 122.94214266 -242.03710938 122.9921875 C-252.60800786 123.08853211 -263.17894968 123.17207371 -273.75 123.25 C-273.75 112.69 -273.75 102.13 -273.75 91.25 C-270.90358887 91.27094727 -268.05717773 91.29189453 -265.12451172 91.31347656 C-255.71689764 91.37977431 -246.30927321 91.42394656 -236.90148735 91.45724869 C-231.197871 91.47811767 -225.49449414 91.50642323 -219.79101562 91.55175781 C-214.28617119 91.59523939 -208.78155703 91.61914229 -203.27655411 91.62950897 C-201.17699687 91.63689613 -199.07745215 91.65132153 -196.97799301 91.67292023 C-194.03567076 91.70198449 -191.09429832 91.70595468 -188.15185547 91.70410156 C-187.28510696 91.71848267 -186.41835846 91.73286377 -185.52534485 91.74768066 C-180.131943 91.7109586 -176.98931955 90.9021153 -172.75 87.25 C-170.67440715 83.63445116 -169.70793662 81.30158459 -169.875 77.125 C-171.12404954 73.02098007 -172.43187517 70.24548795 -175.89933777 67.62675476 C-179.50125431 65.8871745 -182.11502934 65.88900356 -186.1105957 65.90942383 C-187.19433723 65.90876671 -187.19433723 65.90876671 -188.29997253 65.90809631 C-190.67552207 65.91017756 -193.05035582 65.93347626 -195.42578125 65.95703125 C-197.07772944 65.96262959 -198.72968262 65.96689856 -200.38163757 65.96989441 C-204.72020323 65.98132449 -209.05846547 66.0107757 -213.39691162 66.04400635 C-217.82771704 66.07474694 -222.2585717 66.08840826 -226.68945312 66.10351562 C-235.376441 66.13564732 -244.06318271 66.18682124 -252.75 66.25 C-253.05905273 65.46157715 -253.36810547 64.6731543 -253.68652344 63.86083984 C-257.19926948 55.23703218 -264.65050707 51.45030147 -272.89208984 47.96191406 C-294.07392448 39.84545811 -319.70689118 41.94510434 -340.9140625 48.89453125 C-351.36752824 53.89088471 -358.81760605 61.96215941 -366.8125 70.125 C-368.07155976 71.3991354 -369.33132003 72.67257898 -370.59179688 73.9453125 C-373.6526675 77.03895641 -376.70390077 80.14181346 -379.75 83.25 C-372.53644202 98.82571755 -364.72360111 114.05068579 -356.75 129.25 C-355.77990359 131.10414348 -354.80984815 132.95830839 -353.83984375 134.8125 C-352.97698682 136.45855583 -352.11373527 138.10440489 -351.25 139.75 C-350.69131226 140.81444336 -350.69131226 140.81444336 -350.12133789 141.90039062 C-347.98299015 145.95774383 -345.80561793 149.99231003 -343.60742188 154.01757812 C-343.07113159 154.99988403 -342.53484131 155.98218994 -341.9822998 156.9942627 C-341.57564087 157.73865601 -341.16898193 158.48304932 -340.75 159.25 C-318.63530067 159.5546587 -296.52095085 159.78339996 -274.40457344 159.92355824 C-264.13374503 159.99038777 -253.86422585 160.08137605 -243.59423828 160.23071289 C-234.63523637 160.36092365 -225.67718316 160.44430475 -216.7172612 160.47315043 C-211.97925801 160.48999489 -207.24396698 160.52912486 -202.50683975 160.62449074 C-177.38965124 161.88225701 -177.38965124 161.88225701 -155.58930397 151.13435078 C-154.44223351 150.02819439 -153.3153371 148.900496 -152.21568108 147.74719238 C-150.22835022 145.71713504 -147.99892803 144.14781586 -145.65234375 142.55859375 C-144.65267578 141.83446289 -144.65267578 141.83446289 -143.6328125 141.09570312 C-136.50513014 135.93600535 -129.34206024 130.83067772 -122.14428711 125.76928711 C-116.98409655 122.13539208 -111.86069125 118.45312056 -106.75 114.75 C-97.44024511 108.00651759 -88.04947664 101.38165063 -78.64550781 94.77050781 C-69.88771079 88.61122266 -61.16850868 82.40401091 -52.50048828 76.11889648 C-47.98948524 72.85256164 -43.45506554 69.62300593 -38.89550781 66.42480469 C-36.10152776 64.46370502 -33.31545551 62.49165698 -30.53271484 60.51464844 C-28.98006348 59.41320581 -27.42212214 58.31922769 -25.86328125 57.2265625 C-20.12310117 53.03291027 -15.55927792 48.82476115 -14.27734375 41.578125 C-13.91628324 34.87536062 -15.36985905 30.32616335 -19.75 25.25 C-24.00842928 21.20449218 -27.62254795 19.50240957 -33.4375 18.8125 C-43.89733584 19.20062007 -53.30132136 27.90849963 -61.52441406 33.69238281 Z M-423.9453125 82.390625 C-424.57098114 82.71407898 -425.19664978 83.03753296 -425.84127808 83.37078857 C-427.17171275 84.05919758 -428.50162279 84.74862129 -429.83105469 85.43896484 C-431.84434731 86.48408784 -433.85952211 87.52550497 -435.875 88.56640625 C-437.16938667 89.23675554 -438.46366092 89.90732196 -439.7578125 90.578125 C-440.35288605 90.88558655 -440.94795959 91.1930481 -441.56106567 91.50982666 C-445.68702627 93.65568057 -449.72460223 95.9231879 -453.75 98.25 C-453.13864394 102.286146 -451.83755536 105.37196092 -449.94140625 108.9765625 C-449.36455078 110.08064453 -448.78769531 111.18472656 -448.19335938 112.32226562 C-447.56652736 113.50657453 -446.93957135 114.69081781 -446.3125 115.875 C-445.66805642 117.10322019 -445.0241813 118.33173881 -444.38085938 119.56054688 C-442.51125286 123.12759877 -440.63116044 126.68902816 -438.75 130.25 C-437.86293734 131.9347148 -436.97617222 133.61958633 -436.08984375 135.3046875 C-434.92127093 137.52557637 -433.75205475 139.74610838 -432.58032227 141.96533203 C-428.93485228 148.87525872 -425.34182751 155.81207128 -421.75 162.75 C-416.53196086 172.82756567 -411.27916403 182.88556786 -405.97949219 192.92041016 C-403.69060223 197.25730212 -401.40834463 201.59768672 -399.125 205.9375 C-398.27867146 207.54558641 -397.43231982 209.15366065 -396.5859375 210.76171875 C-395.98007812 211.91285156 -395.37421875 213.06398438 -394.75 214.25 C-382.31357267 208.11094323 -370.01716703 201.71996441 -357.75 195.25 C-358.29846029 192.04207683 -358.99081354 189.41398162 -360.54296875 186.5546875 C-360.91873047 185.85279297 -361.29449219 185.15089844 -361.68164062 184.42773438 C-362.09607422 183.66783203 -362.51050781 182.90792969 -362.9375 182.125 C-363.84871755 180.42504762 -364.7588071 178.72449029 -365.66796875 177.0234375 C-366.16216309 176.10143555 -366.65635742 175.17943359 -367.16552734 174.22949219 C-370.07379504 168.76069419 -372.90678925 163.25281436 -375.75 157.75 C-379.72506558 150.07001377 -383.71124993 142.39670013 -387.75 134.75 C-392.39738045 125.95095968 -396.97259777 117.11504171 -401.54736328 108.27807617 C-406.57156904 98.57904829 -411.64518401 88.90680629 -416.75 79.25 C-419.09624562 79.25 -421.97198056 81.36943732 -423.9453125 82.390625 Z " fill="#000000" transform="translate(495.75,194.75)"/>
<path d="M0 0 C13.78705908 10.58477971 23.77185311 26.58952116 26.05859375 43.96875 C26.83232897 55.18791067 26.8493812 66.2663113 23.05859375 76.96875 C22.78015625 77.82339844 22.50171875 78.67804688 22.21484375 79.55859375 C19.86568772 86.13015523 16.34522471 91.49518337 12.05859375 96.96875 C11.41148437 97.80535156 10.764375 98.64195312 10.09765625 99.50390625 C-0.94884088 112.78844834 -16.84852848 120.54422759 -33.8828125 122.69140625 C-53.06225268 124.43053812 -70.95739 118.93145189 -85.88671875 106.73828125 C-97.14806094 97.03982496 -104.99869571 84.6823027 -107.94140625 69.96875 C-129.72140625 69.96875 -151.50140625 69.96875 -173.94140625 69.96875 C-173.94140625 78.21875 -173.94140625 86.46875 -173.94140625 94.96875 C-184.17140625 94.96875 -194.40140625 94.96875 -204.94140625 94.96875 C-204.94140625 86.71875 -204.94140625 78.46875 -204.94140625 69.96875 C-213.52140625 69.96875 -222.10140625 69.96875 -230.94140625 69.96875 C-230.94140625 76.23875 -230.94140625 82.50875 -230.94140625 88.96875 C-241.17140625 88.96875 -251.40140625 88.96875 -261.94140625 88.96875 C-261.94140625 72.46875 -261.94140625 55.96875 -261.94140625 38.96875 C-211.12140625 38.96875 -160.30140625 38.96875 -107.94140625 38.96875 C-106.95140625 35.33875 -105.96140625 31.70875 -104.94140625 27.96875 C-98.51280563 12.77904766 -86.04662927 -0.79984709 -70.83203125 -7.375 C-46.21653567 -17.13044986 -22.00090927 -15.193191 0 0 Z M-68.94140625 28.96875 C-75.73725817 37.23678866 -79.15646496 46.23015157 -78.94140625 56.96875 C-77.49058632 67.85694232 -72.89863091 77.46773658 -64.26953125 84.43359375 C-55.30771057 90.34298222 -45.56123237 93.04755388 -34.94140625 91.34375 C-24.41128651 88.88948587 -16.11119595 83.58041784 -10.3671875 74.4375 C-4.6816859 64.59301504 -2.96475204 54.94188884 -5.75390625 43.69140625 C-9.48621051 33.62196038 -15.74437634 26.27907297 -25.31640625 21.40625 C-40.49024587 14.48588129 -56.9986061 17.14235141 -68.94140625 28.96875 Z " fill="#000000" transform="translate(382.94140625,75.03125)"/>
</svg>
