<?xml version="1.0" standalone="no"?>
<!DOCTYPE svg PUBLIC "-//W3C//DTD SVG 20010904//EN"
 "http://www.w3.org/TR/2001/REC-SVG-20010904/DTD/svg10.dtd">
<svg version="1.0" xmlns="http://www.w3.org/2000/svg"
 width="512.000000pt" height="512.000000pt" viewBox="0 0 512.000000 512.000000"
 preserveAspectRatio="xMidYMid meet">

<g transform="translate(0.000000,512.000000) scale(0.100000,-0.100000)"
fill="#000000" stroke="none">
<path d="M1236 5069 c-72 -11 -174 -57 -234 -106 -58 -47 -117 -140 -142 -221
-16 -52 -20 -93 -20 -221 l0 -156 -355 -425 c-381 -456 -414 -503 -434 -627
-9 -49 -11 -417 -9 -1328 l3 -1260 28 -88 c49 -157 118 -269 231 -374 127
-119 292 -194 467 -213 131 -14 3463 -13 3584 0 172 20 336 95 461 213 113
105 182 217 231 374 l28 88 3 1260 c2 910 0 1279 -9 1328 -20 124 -53 171
-434 627 l-355 425 0 150 c0 166 -12 235 -58 319 -65 120 -205 215 -347 236
-87 12 -2554 11 -2639 -1z m2659 -268 c49 -22 93 -65 114 -111 14 -31 16 -134
19 -951 l3 -916 -510 -389 c-281 -214 -514 -390 -519 -392 -5 -1 -52 34 -103
79 -54 47 -121 95 -159 113 -61 29 -72 31 -180 31 -108 0 -119 -2 -180 -31
-36 -18 -107 -68 -160 -113 -52 -45 -97 -80 -101 -79 -4 2 -237 179 -518 393
l-511 390 2 921 3 921 30 48 c22 36 45 57 84 77 l53 28 1297 0 c1236 0 1298
-1 1336 -19z m-3057 -1547 l-3 -236 -238 182 c-131 100 -237 185 -235 189 2 4
109 134 238 290 l235 283 3 -236 c1 -130 1 -342 0 -472z m3697 407 c220 -265
227 -274 209 -291 -24 -23 -453 -350 -459 -350 -3 0 -5 212 -5 472 0 398 2
470 14 458 7 -8 116 -138 241 -289z m-3405 -1189 c432 -330 785 -603 785 -608
0 -9 -1504 -1322 -1516 -1323 -3 -1 -20 27 -37 62 -65 128 -62 66 -62 1339 l0
1158 23 -15 c12 -8 375 -284 807 -613z m3688 -787 l-3 -950 -26 -65 c-14 -36
-35 -80 -46 -98 l-21 -34 -233 204 c-129 112 -469 407 -756 656 -287 249 -524
456 -527 461 -6 8 71 67 1084 840 l525 400 3 -232 c1 -128 1 -659 0 -1182z
m-2207 325 c26 -7 290 -230 970 -820 514 -446 935 -814 937 -819 3 -10 -85
-47 -148 -61 -59 -13 -3537 -14 -3606 -1 -58 11 -164 49 -164 59 0 4 125 115
277 247 152 132 574 498 937 813 401 348 672 576 690 581 42 12 65 13 107 1z"/>
<path d="M2393 4516 c-357 -68 -646 -313 -759 -643 -45 -133 -57 -223 -51
-373 6 -145 29 -244 86 -366 128 -272 360 -463 656 -540 80 -21 125 -26 225
-27 69 0 152 5 185 12 100 20 214 61 245 88 56 47 58 133 4 187 -40 39 -81 42
-171 12 -211 -69 -391 -58 -578 34 -186 91 -325 263 -381 470 -23 88 -24 262
-1 350 43 163 150 321 282 415 132 95 259 135 425 135 128 0 209 -18 315 -70
193 -94 336 -269 390 -475 22 -85 31 -281 15 -331 -45 -140 -213 -162 -264
-34 -13 33 -16 82 -16 271 0 253 -4 275 -60 304 -36 19 -100 19 -125 1 -17
-12 -25 -12 -60 6 -218 112 -491 17 -598 -209 -30 -64 -32 -74 -32 -183 0
-108 2 -119 32 -182 55 -116 147 -199 264 -238 53 -18 81 -21 160 -18 86 3
104 7 166 38 l70 35 46 -48 c28 -28 74 -61 114 -80 61 -29 77 -32 158 -32 117
1 184 26 265 101 112 104 140 182 140 385 0 201 -27 325 -105 481 -124 247
-368 442 -636 508 -109 27 -306 35 -406 16z m257 -806 c102 -52 128 -192 53
-281 -99 -117 -282 -73 -322 76 -19 74 14 154 82 199 52 33 129 36 187 6z"/>
</g>
</svg>
