<?xml version="1.0" standalone="no"?>
<!DOCTYPE svg PUBLIC "-//W3C//DTD SVG 20010904//EN"
 "http://www.w3.org/TR/2001/REC-SVG-20010904/DTD/svg10.dtd">
<svg version="1.0" xmlns="http://www.w3.org/2000/svg"
 width="512.000000pt" height="512.000000pt" viewBox="0 0 512.000000 512.000000"
 preserveAspectRatio="xMidYMid meet">

<g transform="translate(0.000000,512.000000) scale(0.100000,-0.100000)"
fill="#000000" stroke="none">
<path d="M870 3325 l0 -1575 1654 0 1654 0 461 -324 c253 -179 465 -327 471
-331 7 -4 10 601 10 1899 l0 1906 -2125 0 -2125 0 0 -1575z m3380 10 l0 -815
-181 2 -180 3 -202 480 -202 480 -5 -490 -5 -490 -147 -3 -148 -3 0 816 0 815
179 0 179 0 71 -167 c39 -93 131 -312 206 -488 l135 -320 0 498 0 497 150 0
150 0 0 -815z m-1512 648 l-3 -148 -347 -3 -348 -2 0 -175 0 -175 265 0 265 0
0 -150 0 -150 -265 0 -265 0 0 -180 0 -180 350 0 350 0 0 -150 0 -150 -500 0
-500 0 0 805 0 805 500 0 501 0 -3 -147z"/>
<path d="M0 2124 c0 -1254 3 -1903 10 -1899 5 3 217 152 471 331 l462 324
1568 0 1569 0 0 285 0 285 -1755 0 -1755 0 0 1290 0 1290 -285 0 -285 0 0
-1906z"/>
</g>
</svg>
