<svg xmlns="http://www.w3.org/2000/svg" xmlns:xlink="http://www.w3.org/1999/xlink" version="1.1" width="50" height="50" viewBox="0 0 50 50" xml:space="preserve">
<desc>Created with Fabric.js 3.5.0</desc>
<defs>
</defs>
<rect x="0" y="0" width="100%" height="100%" fill="#ffffff"/>
<g transform="matrix(0.0666 0 0 0.0666 25.0093 25.0741)" id="880612">
<g style="" vector-effect="non-scaling-stroke">
		<g transform="matrix(1.7449 0 0 1.7449 0.0008 0.0008)">
<path style="stroke: none; stroke-width: 1; stroke-dasharray: none; stroke-linecap: butt; stroke-dashoffset: 0; stroke-linejoin: miter; stroke-miterlimit: 4; is-custom-font: none; font-file-url: none; fill: rgb(114,6,5); fill-rule: evenodd; opacity: 1;" transform=" translate(-254.2438, -230.9351)" d="M 466.5 197.5 C 466.444 202.731 467.111 207.731 468.5 212.5 C 472.989 292.008 443.989 356.175 381.5 405 C 325.747 443.949 264.747 455.283 198.5 439 C 119.929 415.429 69.0957 364.262 46 285.5 C 26.8214 198.045 50.3214 124.545 116.5 65 C 173.15 20.3325 236.817 5.99918 307.5 22 C 380.691 43.1926 430.858 89.3592 458 160.5 C 462.255 172.521 465.089 184.854 466.5 197.5 Z" stroke-linecap="round"/>
</g>
		<g transform="matrix(1.7449 0 0 1.7449 0.4234 -2.4097)">
<path style="stroke: none; stroke-width: 1; stroke-dasharray: none; stroke-linecap: butt; stroke-dashoffset: 0; stroke-linejoin: miter; stroke-miterlimit: 4; is-custom-font: none; font-file-url: none; fill: rgb(0,0,0); fill-rule: evenodd; opacity: 1;" transform=" translate(-254.4861, -229.5537)" d="M 236.5 63.5 C 306.774 59.7187 360.941 87.0521 399 145.5 C 422.492 186.898 427.825 230.564 415 276.5 C 396.928 332.905 359.761 370.405 303.5 389 C 231.756 407.526 171.59 389.026 123 333.5 C 88.6976 287.315 79.031 236.315 94 180.5 C 111.707 130.125 145.207 94.6252 194.5 74 C 208.394 69.5275 222.394 66.0275 236.5 63.5 Z" stroke-linecap="round"/>
</g>
		<g transform="matrix(1.7449 0 0 1.7449 -3.2701 1.391)">
<path style="stroke: none; stroke-width: 1; stroke-dasharray: none; stroke-linecap: butt; stroke-dashoffset: 0; stroke-linejoin: miter; stroke-miterlimit: 4; is-custom-font: none; font-file-url: none; fill: rgb(111,3,4); fill-rule: evenodd; opacity: 1;" transform=" translate(-252.3695, -231.7321)" d="M 213.5 152.5 C 235.877 149.446 253.377 157.113 266 175.5 C 272.784 187.882 274.284 200.882 270.5 214.5 C 299.302 212.49 318.469 225.157 328 252.5 C 331.562 277.879 322.062 296.379 299.5 308 C 271.557 317.134 250.39 308.967 236 283.5 C 231.118 272.108 230.285 260.441 233.5 248.5 C 205.582 251.459 186.749 239.793 177 213.5 C 172.28 182.925 184.447 162.591 213.5 152.5 Z" stroke-linecap="round"/>
</g>
		<g transform="matrix(1.7449 0 0 1.7449 -52.9598 -52.7712)">
<path style="stroke: none; stroke-width: 1; stroke-dasharray: none; stroke-linecap: butt; stroke-dashoffset: 0; stroke-linejoin: miter; stroke-miterlimit: 4; is-custom-font: none; font-file-url: none; fill: rgb(1,0,0); fill-rule: evenodd; opacity: 1;" transform=" translate(-223.8924, -200.6919)" d="M 214.5 165.5 C 234.764 162.546 249.264 170.212 258 188.5 C 262.829 216.656 251.163 232.656 223 236.5 C 205.096 234.547 193.763 224.88 189 207.5 C 187.04 187.079 195.54 173.079 214.5 165.5 Z" stroke-linecap="round"/>
</g>
		<g transform="matrix(1.7449 0 0 1.7449 372.11 -45.2541)">
<path style="stroke: none; stroke-width: 1; stroke-dasharray: none; stroke-linecap: butt; stroke-dashoffset: 0; stroke-linejoin: miter; stroke-miterlimit: 4; is-custom-font: none; font-file-url: none; fill: rgb(143,61,56); fill-rule: evenodd; opacity: 0.984;" transform=" translate(-467.5, -205)" d="M 466.5 197.5 C 467.889 202.269 468.556 207.269 468.5 212.5 C 467.111 207.731 466.444 202.731 466.5 197.5 Z" stroke-linecap="round"/>
</g>
		<g transform="matrix(1.7449 0 0 1.7449 44.808 56.1813)">
<path style="stroke: none; stroke-width: 1; stroke-dasharray: none; stroke-linecap: butt; stroke-dashoffset: 0; stroke-linejoin: miter; stroke-miterlimit: 4; is-custom-font: none; font-file-url: none; fill: rgb(1,0,0); fill-rule: evenodd; opacity: 1;" transform=" translate(-279.9231, -263.1326)" d="M 275.5 227.5 C 303.996 228.493 317.163 243.16 315 271.5 C 307.744 292.722 292.91 301.555 270.5 298 C 251.147 290.475 242.647 276.309 245 255.5 C 249.971 240.357 260.138 231.023 275.5 227.5 Z" stroke-linecap="round"/>
</g>
</g>
</g>
</svg>