<?xml version="1.0" encoding="UTF-8"?>
<!DOCTYPE svg PUBLIC "-//W3C//DTD SVG 1.1//EN" "http://www.w3.org/Graphics/SVG/1.1/DTD/svg11.dtd">
<svg xmlns="http://www.w3.org/2000/svg" version="1.1" width="521px" height="479px" style="shape-rendering:geometricPrecision; text-rendering:geometricPrecision; image-rendering:optimizeQuality; fill-rule:evenodd; clip-rule:evenodd" xmlns:xlink="http://www.w3.org/1999/xlink">
<g><path style="opacity:1" fill="#720605" d="M 466.5,197.5 C 466.444,202.731 467.111,207.731 468.5,212.5C 472.989,292.008 443.989,356.175 381.5,405C 325.747,443.949 264.747,455.283 198.5,439C 119.929,415.429 69.0957,364.262 46,285.5C 26.8214,198.045 50.3214,124.545 116.5,65C 173.15,20.3325 236.817,5.99918 307.5,22C 380.691,43.1926 430.858,89.3592 458,160.5C 462.255,172.521 465.089,184.854 466.5,197.5 Z"/></g>
<g><path style="opacity:1" fill="#000000" d="M 236.5,63.5 C 306.774,59.7187 360.941,87.0521 399,145.5C 422.492,186.898 427.825,230.564 415,276.5C 396.928,332.905 359.761,370.405 303.5,389C 231.756,407.526 171.59,389.026 123,333.5C 88.6976,287.315 79.031,236.315 94,180.5C 111.707,130.125 145.207,94.6252 194.5,74C 208.394,69.5275 222.394,66.0275 236.5,63.5 Z"/></g>
<g><path style="opacity:1" fill="#6f0304" d="M 213.5,152.5 C 235.877,149.446 253.377,157.113 266,175.5C 272.784,187.882 274.284,200.882 270.5,214.5C 299.302,212.49 318.469,225.157 328,252.5C 331.562,277.879 322.062,296.379 299.5,308C 271.557,317.134 250.39,308.967 236,283.5C 231.118,272.108 230.285,260.441 233.5,248.5C 205.582,251.459 186.749,239.793 177,213.5C 172.28,182.925 184.447,162.591 213.5,152.5 Z"/></g>
<g><path style="opacity:1" fill="#010000" d="M 214.5,165.5 C 234.764,162.546 249.264,170.212 258,188.5C 262.829,216.656 251.163,232.656 223,236.5C 205.096,234.547 193.763,224.88 189,207.5C 187.04,187.079 195.54,173.079 214.5,165.5 Z"/></g>
<g><path style="opacity:0.984" fill="#8f3d38" d="M 466.5,197.5 C 467.889,202.269 468.556,207.269 468.5,212.5C 467.111,207.731 466.444,202.731 466.5,197.5 Z"/></g>
<g><path style="opacity:1" fill="#010000" d="M 275.5,227.5 C 303.996,228.493 317.163,243.16 315,271.5C 307.744,292.722 292.91,301.555 270.5,298C 251.147,290.475 242.647,276.309 245,255.5C 249.971,240.357 260.138,231.023 275.5,227.5 Z"/></g>
</svg>
